<svg width="24" height="24" xmlns="http://www.w3.org/2000/svg">

 <g>
  <title>background</title>
  <rect fill="none" id="canvas_background" height="402" width="582" y="-1" x="-1"/>
 </g>
 <g>
  <title>Layer 1</title>
  <path id="svg_1" fill="" d="m12,23c6.0751,0 11,-4.9249 11,-11c0,-6.07513 -4.9249,-11 -11,-11c-6.07513,0 -11,4.92487 -11,11c0,6.0751 4.92487,11 11,11zm-1.0607,-17.43934c-0.2813,0.2813 -0.4393,0.66284 -0.4393,1.06066l0,3.87868l-3.87868,0c-0.39782,0 -0.77936,0.158 -1.06066,0.4393c-0.58579,0.5858 -0.58579,1.5356 0,2.1214c0.2813,0.2813 0.66284,0.4393 1.06066,0.4393l3.87868,0l0,3.8787c0,0.3978 0.158,0.7793 0.4393,1.0606c0.5858,0.5858 1.5356,0.5858 2.1214,0c0.2813,-0.2813 0.4393,-0.6628 0.4393,-1.0606l0,-3.8787l3.8787,0c0.3978,0 0.7793,-0.158 1.0606,-0.4393c0.5858,-0.5858 0.5858,-1.5356 0,-2.1214c-0.2813,-0.2813 -0.6628,-0.4393 -1.0606,-0.4393l-3.8787,0l0,-3.87868c0,-0.39782 -0.158,-0.77936 -0.4393,-1.06066c-0.5858,-0.58579 -1.5356,-0.58579 -2.1214,0z" clip-rule="evenodd" fill-rule="evenodd"/>
 </g>
</svg>