<svg width="24" height="24" viewBox="0 0 24 24" fill="none" xmlns="http://www.w3.org/2000/svg">
<path fill-rule="evenodd" clip-rule="evenodd" d="M12 23C18.0751 23 23 18.0751 23 12C23 5.92487 18.0751 1 12 1C5.92487 1 1 5.92487 1 12C1 18.0751 5.92487 23 12 23ZM10.9393 5.56066C10.658 5.84196 10.5 6.2235 10.5 6.62132V10.5H6.62132C6.2235 10.5 5.84196 10.658 5.56066 10.9393C4.97487 11.5251 4.97487 12.4749 5.56066 13.0607C5.84196 13.342 6.2235 13.5 6.62132 13.5H10.5V17.3787C10.5 17.7765 10.658 18.158 10.9393 18.4393C11.5251 19.0251 12.4749 19.0251 13.0607 18.4393C13.342 18.158 13.5 17.7765 13.5 17.3787V13.5H17.3787C17.7765 13.5 18.158 13.342 18.4393 13.0607C19.0251 12.4749 19.0251 11.5251 18.4393 10.9393C18.158 10.658 17.7765 10.5 17.3787 10.5H13.5V6.62132C13.5 6.2235 13.342 5.84196 13.0607 5.56066C12.4749 4.97487 11.5251 4.97487 10.9393 5.56066Z" fill="#263238"/>
</svg>
