<svg width="24" height="24" viewBox="0 0 24 24" fill="none" xmlns="http://www.w3.org/2000/svg">
<path d="M9.14245 6.40451C9.14245 5.57012 9.44347 4.7699 9.97929 4.1799C10.5151 3.58989 11.2418 3.25843 11.9996 3.25843C12.7574 3.25843 13.4841 3.58989 14.0199 4.1799C14.5557 4.7699 14.8567 5.57012 14.8567 6.40451V8.15373H15.9996V6.40451C15.9996 5.8261 15.8961 5.25336 15.6951 4.71898C15.4941 4.1846 15.1995 3.69905 14.828 3.29005C14.4566 2.88105 14.0156 2.55662 13.5303 2.33527C13.045 2.11393 12.5249 2 11.9996 2C11.4743 2 10.9542 2.11393 10.4689 2.33527C9.98356 2.55662 9.5426 2.88105 9.17117 3.29005C8.79974 3.69905 8.5051 4.1846 8.30408 4.71898C8.10306 5.25336 7.9996 5.8261 7.9996 6.40451V8.15373H9.14245V6.40451Z" fill="#263238"/>
<path d="M16 8.15824V10.1087C16 10.2755 15.9398 10.4356 15.8326 10.5536C15.7255 10.6716 15.5801 10.7378 15.4286 10.7378C15.277 10.7378 15.1317 10.6716 15.0245 10.5536C14.9173 10.4356 14.8571 10.2755 14.8571 10.1087V8.15824H9.14286V10.1087C9.14286 10.2755 9.08265 10.4356 8.97549 10.5536C8.86833 10.6716 8.72298 10.7378 8.57143 10.7378C8.41988 10.7378 8.27453 10.6716 8.16737 10.5536C8.0602 10.4356 8 10.2755 8 10.1087V8.15824H4V20.7417C4 21.0754 4.12041 21.3955 4.33474 21.6314C4.54906 21.8674 4.83975 22 5.14286 22H18.8571C19.1602 22 19.4509 21.8674 19.6653 21.6314C19.8796 21.3955 20 21.0754 20 20.7417V8.15824H16Z" fill="#263238"/>
</svg>
