<svg width="24" height="24" xmlns="http://www.w3.org/2000/svg">

 <g>
  <title>background</title>
  <rect fill="none" id="canvas_background" height="402" width="582" y="-1" x="-1"/>
 </g>
 <g>
  <title>Layer 1</title>
  <path id="svg_1" fill="" d="m9.14245,6.40451c0,-0.83439 0.30102,-1.63461 0.83684,-2.22461c0.53581,-0.59001 1.26251,-0.92147 2.02031,-0.92147c0.7578,0 1.4845,0.33146 2.0203,0.92147c0.5358,0.59 0.8368,1.39022 0.8368,2.22461l0,1.74922l1.1429,0l0,-1.74922c0,-0.57841 -0.1035,-1.15115 -0.3045,-1.68553c-0.201,-0.53438 -0.4956,-1.01993 -0.8671,-1.42893c-0.3714,-0.409 -0.8124,-0.73343 -1.2977,-0.95478c-0.4853,-0.22134 -1.0054,-0.33527 -1.5307,-0.33527c-0.5253,0 -1.0454,0.11393 -1.5307,0.33527c-0.48534,0.22135 -0.9263,0.54578 -1.29773,0.95478c-0.37143,0.409 -0.66607,0.89455 -0.86709,1.42893c-0.20102,0.53438 -0.30448,1.10712 -0.30448,1.68553l0,1.74922l1.14285,0l0,-1.74922z"/>
  <path id="svg_2" fill="" d="m16,8.15824l0,1.95046c0,0.1668 -0.0602,0.3269 -0.1674,0.4449c-0.1071,0.118 -0.2525,0.1842 -0.404,0.1842c-0.1516,0 -0.2969,-0.0662 -0.4041,-0.1842c-0.1072,-0.118 -0.1674,-0.2781 -0.1674,-0.4449l0,-1.95046l-5.71424,0l0,1.95046c0,0.1668 -0.06021,0.3269 -0.16737,0.4449c-0.10716,0.118 -0.25251,0.1842 -0.40406,0.1842c-0.15155,0 -0.2969,-0.0662 -0.40406,-0.1842c-0.10717,-0.118 -0.16737,-0.2781 -0.16737,-0.4449l0,-1.95046l-4,0l0,12.58346c0,0.3337 0.12041,0.6538 0.33474,0.8897c0.21432,0.236 0.50501,0.3686 0.80812,0.3686l13.71424,0c0.3031,0 0.5938,-0.1326 0.8082,-0.3686c0.2143,-0.2359 0.3347,-0.556 0.3347,-0.8897l0,-12.58346l-4,0z"/>
 </g>
</svg>