<svg width="24" height="24" viewBox="0 0 24 24" fill="none" xmlns="http://www.w3.org/2000/svg">
<path d="M20.2871 5.24287C20.6761 5.24287 21 5.56585 21 5.97684V6.35682C21 6.7578 20.6761 7.09079 20.2871 7.09079H3.71385C3.32386 7.09079 3 6.7578 3 6.35682V5.97684C3 5.56585 3.32386 5.24287 3.71385 5.24287H6.62957C7.22185 5.24287 7.7373 4.82188 7.87054 4.22791L8.02323 3.54594C8.26054 2.61697 9.0415 2 9.93527 2H14.0647C14.9488 2 15.7385 2.61697 15.967 3.49694L16.1304 4.22691C16.2627 4.82188 16.7781 5.24287 17.3714 5.24287H20.2871Z" fill="#263238"/>
<path d="M18.8056 19.1341C19.11 16.2972 19.643 9.55751 19.643 9.48951C19.6624 9.28352 19.5953 9.08853 19.4621 8.93154C19.3191 8.78454 19.1382 8.69755 18.9388 8.69755H5.0683C4.86796 8.69755 4.67734 8.78454 4.54507 8.93154C4.41086 9.08853 4.34473 9.28352 4.35445 9.48951C4.35624 9.50201 4.37536 9.73942 4.40733 10.1363C4.54937 11.8995 4.94495 16.8103 5.20057 19.1341C5.38147 20.846 6.50476 21.922 8.13184 21.961C9.38741 21.99 10.6809 22 12.0036 22C13.2494 22 14.5147 21.99 15.8092 21.961C17.4927 21.932 18.615 20.875 18.8056 19.1341Z" fill="#263238"/>
</svg>
