<svg width="16" height="16" viewBox="0 0 16 16" fill="none" xmlns="http://www.w3.org/2000/svg">
<path d="M13.5247 3.49524C13.7841 3.49524 14 3.71056 14 3.98455V4.23787C14 4.5052 13.7841 4.72719 13.5247 4.72719H2.4759C2.21591 4.72719 2 4.5052 2 4.23787V3.98455C2 3.71056 2.21591 3.49524 2.4759 3.49524H4.41971C4.81457 3.49524 5.1582 3.21458 5.24703 2.8186L5.34882 2.36395C5.50702 1.74464 6.02766 1.33333 6.62351 1.33333H9.37649C9.96585 1.33333 10.4923 1.74464 10.6447 2.33129L10.7536 2.81793C10.8418 3.21458 11.1854 3.49524 11.5809 3.49524H13.5247Z" fill=""/>
<path d="M12.5371 12.7561C12.74 10.8648 13.0953 6.37167 13.0953 6.32634C13.1083 6.18901 13.0635 6.05902 12.9747 5.95435C12.8794 5.85636 12.7588 5.79836 12.6259 5.79836H3.37887C3.24531 5.79836 3.11823 5.85636 3.03005 5.95435C2.94057 6.05902 2.89648 6.18901 2.90297 6.32634C2.90416 6.33467 2.91691 6.49294 2.93822 6.75754C3.03291 7.933 3.29663 11.2069 3.46705 12.7561C3.58764 13.8974 4.33651 14.6147 5.42123 14.6407C6.25827 14.66 7.1206 14.6667 8.00238 14.6667C8.83294 14.6667 9.67647 14.66 10.5394 14.6407C11.6618 14.6213 12.41 13.9167 12.5371 12.7561Z" fill=""/>
</svg>
