<svg width="23.999999999999996" height="23.999999999999996" xmlns="http://www.w3.org/2000/svg">

 <g>
  <title>background</title>
  <rect fill="none" id="canvas_background" height="402" width="582" y="-1" x="-1"/>
 </g>
 <g>
  <title>Layer 1</title>
  <path fill="" id="svg_1" d="m4.5,17.5l-2.5,0a2,2 0 0 0 -2,2l0,2.5a2,2 0 0 0 2,2l2.5,0a2,2 0 0 0 2,-2l0,-2.5a2,2 0 0 0 -2,-2zm0,4.5l-2.5,0l0,-2.5l2.5,0l0,2.5z"/>
  <path fill="" id="svg_2" d="m22,17.5l-2.5,0a2,2 0 0 0 -2,2l0,2.5a2,2 0 0 0 2,2l2.5,0a2,2 0 0 0 2,-2l0,-2.5a2,2 0 0 0 -2,-2zm0,4.5l-2.5,0l0,-2.5l2.5,0l0,2.5z"/>
  <path fill="" id="svg_3" d="m4.5,8.75l-2.5,0a2,2 0 0 0 -2,2l0,2.5a2,2 0 0 0 2,2l2.5,0a2,2 0 0 0 2,-2l0,-2.5a2,2 0 0 0 -2,-2zm0,4.5l-2.5,0l0,-2.5l2.5,0l0,2.5z"/>
  <path fill="" id="svg_4" d="m22,8.75l-2.5,0a2,2 0 0 0 -2,2l0,2.5a2,2 0 0 0 2,2l2.5,0a2,2 0 0 0 2,-2l0,-2.5a2,2 0 0 0 -2,-2zm0,4.5l-2.5,0l0,-2.5l2.5,0l0,2.5z"/>
  <path fill="" id="svg_5" d="m4.5,0l-2.5,0a2,2 0 0 0 -2,2l0,2.5a2,2 0 0 0 2,2l2.5,0a2,2 0 0 0 2,-2l0,-2.5a2,2 0 0 0 -2,-2zm0,4.5l-2.5,0l0,-2.5l2.5,0l0,2.5z"/>
  <path fill="" id="svg_6" d="m13.25,17.5l-2.5,0a2,2 0 0 0 -2,2l0,2.5a2,2 0 0 0 2,2l2.5,0a2,2 0 0 0 2,-2l0,-2.5a2,2 0 0 0 -2,-2zm0,4.5l-2.5,0l0,-2.5l2.5,0l0,2.5z"/>
  <path fill="" id="svg_7" d="m13.25,8.75l-2.5,0a2,2 0 0 0 -2,2l0,2.5a2,2 0 0 0 2,2l2.5,0a2,2 0 0 0 2,-2l0,-2.5a2,2 0 0 0 -2,-2zm0,4.5l-2.5,0l0,-2.5l2.5,0l0,2.5z"/>
  <path fill="" id="svg_8" d="m13.25,0l-2.5,0a2,2 0 0 0 -2,2l0,2.5a2,2 0 0 0 2,2l2.5,0a2,2 0 0 0 2,-2l0,-2.5a2,2 0 0 0 -2,-2zm0,4.5l-2.5,0l0,-2.5l2.5,0l0,2.5z"/>
  <path fill="" id="svg_9" d="m22,0l-2.5,0a2,2 0 0 0 -2,2l0,2.5a2,2 0 0 0 2,2l2.5,0a2,2 0 0 0 2,-2l0,-2.5a2,2 0 0 0 -2,-2zm0,4.5l-2.5,0l0,-2.5l2.5,0l0,2.5z"/>
 </g>
</svg>