<?xml version="1.0" encoding="UTF-8"?>
<svg xmlns="http://www.w3.org/2000/svg" xmlns:xlink="http://www.w3.org/1999/xlink" width="25px" height="25px" viewBox="0 0 25 25" version="1.1">
<g id="surface1">
<path style=" stroke:none;fill-rule:nonzero;fill:;fill-opacity:1;" d="M 4.167969 0 L 7.292969 0 C 9.59375 0 11.457031 1.867188 11.457031 4.167969 L 11.457031 7.292969 C 11.457031 9.59375 9.59375 11.457031 7.292969 11.457031 L 4.167969 11.457031 C 1.867188 11.457031 0 9.59375 0 7.292969 L 0 4.167969 C 0 1.867188 1.867188 0 4.167969 0 Z M 4.167969 0 "/>
<path style=" stroke:none;fill-rule:nonzero;fill:;fill-opacity:1;" d="M 17.707031 0 L 20.832031 0 C 23.132812 0 25 1.867188 25 4.167969 L 25 7.292969 C 25 9.59375 23.132812 11.457031 20.832031 11.457031 L 17.707031 11.457031 C 15.40625 11.457031 13.542969 9.59375 13.542969 7.292969 L 13.542969 4.167969 C 13.542969 1.867188 15.40625 0 17.707031 0 Z M 17.707031 0 "/>
<path style=" stroke:none;fill-rule:nonzero;fill:;fill-opacity:1;" d="M 4.167969 13.542969 L 7.292969 13.542969 C 9.59375 13.542969 11.457031 15.40625 11.457031 17.707031 L 11.457031 20.832031 C 11.457031 23.132812 9.59375 25 7.292969 25 L 4.167969 25 C 1.867188 25 0 23.132812 0 20.832031 L 0 17.707031 C 0 15.40625 1.867188 13.542969 4.167969 13.542969 Z M 4.167969 13.542969 "/>
<path style=" stroke:none;fill-rule:nonzero;fill:;fill-opacity:1;" d="M 17.707031 13.542969 L 20.832031 13.542969 C 23.132812 13.542969 25 15.40625 25 17.707031 L 25 20.832031 C 25 23.132812 23.132812 25 20.832031 25 L 17.707031 25 C 15.40625 25 13.542969 23.132812 13.542969 20.832031 L 13.542969 17.707031 C 13.542969 15.40625 15.40625 13.542969 17.707031 13.542969 Z M 17.707031 13.542969 "/>
</g>
</svg>
