<svg width="512" height="512" xmlns="http://www.w3.org/2000/svg">

 <g>
  <title>background</title>
  <rect fill="none" id="canvas_background" height="402" width="582" y="-1" x="-1"/>
 </g>
 <g>
  <title>Layer 1</title>
  <g id="svg_1">
   <path fill="#ffffff" id="svg_2" d="m85.333,0l64,0c47.128,0 85.333,38.205 85.333,85.333l0,64c0,47.128 -38.205,85.333 -85.333,85.333l-64,0c-47.128,0.001 -85.333,-38.204 -85.333,-85.333l0,-64c0,-47.128 38.205,-85.333 85.333,-85.333z"/>
   <path fill="#ffffff" id="svg_3" d="m362.667,0l64,0c47.128,0 85.333,38.205 85.333,85.333l0,64c0,47.128 -38.205,85.333 -85.333,85.333l-64,0c-47.128,0 -85.333,-38.205 -85.333,-85.333l0,-64c-0.001,-47.128 38.204,-85.333 85.333,-85.333z"/>
   <path fill="#ffffff" id="svg_4" d="m85.333,277.333l64,0c47.128,0 85.333,38.205 85.333,85.333l0,64c0,47.128 -38.205,85.333 -85.333,85.333l-64,0c-47.128,0.001 -85.333,-38.204 -85.333,-85.332l0,-64c0,-47.129 38.205,-85.334 85.333,-85.334z"/>
   <path fill="#ffffff" id="svg_5" d="m362.667,277.333l64,0c47.128,0 85.333,38.205 85.333,85.333l0,64c0,47.129 -38.205,85.334 -85.333,85.334l-64,0c-47.128,0 -85.333,-38.205 -85.333,-85.333l0,-64c-0.001,-47.129 38.204,-85.334 85.333,-85.334z"/>
  </g>
 </g>
</svg>