<svg width="24" height="24" xmlns="http://www.w3.org/2000/svg">

 <g>
  <title>background</title>
  <rect fill="none" id="canvas_background" height="402" width="582" y="-1" x="-1"/>
 </g>
 <g>
  <title>Layer 1</title>
  <path id="svg_1" fill="" d="m21.6643,11.1351l-3.0311,-2.92984l0,-3.38452c0,-0.61197 -0.513,-1.10792 -1.1471,-1.10792c-0.6326,0 -1.1456,0.49595 -1.1456,1.10792l0,1.16841l-2.2569,-2.18162c-1.1158,-1.07799 -3.0559,-1.07608 -4.16917,0.00195l-7.57888,7.32562c-0.4474,0.4334 -0.4474,1.1345 0,1.5672c0.4476,0.4332 1.17437,0.4332 1.62181,0l7.57814,-7.3259c0.2469,-0.23738 0.682,-0.23738 0.9276,-0.00071l7.5794,7.32661c0.2248,0.2166 0.5178,0.3243 0.8107,0.3243c0.2936,0 0.5871,-0.1078 0.8111,-0.3243c0.4476,-0.4327 0.4476,-1.1338 0,-1.5672z"/>
  <path id="svg_2" fill="" d="m12.3978,7.47773c-0.2202,-0.21272 -0.5767,-0.21272 -0.7963,0l-6.66638,6.44187c-0.10525,0.1017 -0.16492,0.2406 -0.16492,0.3855l0,4.6985c0,1.1025 0.92483,1.9964 2.06541,1.9964l3.30049,0l0,-4.9408l3.7263,0l0,4.9408l3.3006,0c1.1405,0 2.0654,-0.8939 2.0654,-1.9964l0,-4.6985c0,-0.1449 -0.0592,-0.2838 -0.165,-0.3855l-6.6656,-6.44187z"/>
 </g>
</svg>