<svg width="24" height="24" viewBox="0 0 24 24" fill="none" xmlns="http://www.w3.org/2000/svg">
<path d="M21.6643 11.1351L18.6332 8.20526V4.82074C18.6332 4.20877 18.1202 3.71282 17.4861 3.71282C16.8535 3.71282 16.3405 4.20877 16.3405 4.82074V5.98915L14.0836 3.80753C12.9678 2.72954 11.0277 2.73145 9.91443 3.80948L2.33555 11.1351C1.88815 11.5685 1.88815 12.2696 2.33555 12.7023C2.78315 13.1355 3.50992 13.1355 3.95736 12.7023L11.5355 5.3764C11.7824 5.13902 12.2175 5.13902 12.4631 5.37569L20.0425 12.7023C20.2673 12.9189 20.5603 13.0266 20.8532 13.0266C21.1468 13.0266 21.4403 12.9188 21.6643 12.7023C22.1119 12.2696 22.1119 11.5685 21.6643 11.1351Z" fill="#263238"/>
<path d="M12.3978 7.47773C12.1776 7.26501 11.8211 7.26501 11.6015 7.47773L4.93512 13.9196C4.82987 14.0213 4.7702 14.1602 4.7702 14.3051V19.0036C4.7702 20.1061 5.69503 21 6.83561 21H10.1361V16.0592H13.8624V21H17.163C18.3035 21 19.2284 20.1061 19.2284 19.0036V14.3051C19.2284 14.1602 19.1692 14.0213 19.0634 13.9196L12.3978 7.47773Z" fill="#263238"/>
</svg>
