<svg width="24" height="24" xmlns="http://www.w3.org/2000/svg">

 <g>
  <title>background</title>
  <rect fill="none" id="canvas_background" height="402" width="582" y="-1" x="-1"/>
 </g>
 <g>
  <title>Layer 1</title>
  <path id="svg_1" fill="" d="m17.5915,11.9324c2.3977,0 4.3414,-1.1041 4.3414,-2.46621c0,-1.36206 -1.9437,-2.46623 -4.3414,-2.46623c-2.3976,0 -4.3413,1.10417 -4.3413,2.46623c0,1.36211 1.9437,2.46621 4.3413,2.46621z"/>
  <path id="svg_2" fill="" d="m17.6562,13.3513c-3.1051,0 -4.3413,-1.3012 -4.3413,-2.055l0,3.2288c0,1.3625 1.9437,2.4649 4.3413,2.4649c2.4,0 4.3438,-1.1024 4.3438,-2.4649l0,-3.1513c0,0.755 -1.2375,1.9775 -4.3438,1.9775z" clip-rule="evenodd" fill-rule="evenodd"/>
  <path id="svg_3" fill="" d="m17.6562,18.34c-2.7776,0 -4.3413,-1.2512 -4.3413,-2.005l0,3.1988c0,1.3625 1.9437,2.4662 4.3413,2.4662c2.4,0 4.3438,-1.1037 4.3438,-2.4662l0,-3.2375c0,0.7537 -1.565,2.0437 -4.3438,2.0437z" clip-rule="evenodd" fill-rule="evenodd"/>
  <path id="svg_4" fill="" d="m6.92133,6.93246c2.71798,0 4.92137,-1.10417 4.92137,-2.46623c0,-1.36206 -2.20339,-2.46623 -4.92137,-2.46623c-2.71798,0 -4.92133,1.10417 -4.92133,2.46623c0,1.36206 2.20335,2.46623 4.92133,2.46623z"/>
  <path id="svg_5" fill="" d="m7.0776,8.35136c-3.5188,0 -4.92133,-1.30124 -4.92133,-2.05498l0,3.22872c0,1.3625 2.20379,2.465 4.92133,2.465c2.72005,0 4.9226,-1.1025 4.9226,-2.465l0,-3.15122c0,0.75499 -1.4038,1.97748 -4.9226,1.97748z" clip-rule="evenodd" fill-rule="evenodd"/>
  <path id="svg_6" fill="" d="m7.0776,13.3401c-3.1488,0 -4.92133,-1.2513 -4.92133,-2.005l0,3.1987c0,1.3625 2.20379,2.4662 4.92133,2.4662c2.72005,0 4.9226,-1.1037 4.9226,-2.4662l0,-3.2375c0,0.7538 -1.775,2.0438 -4.9226,2.0438z" clip-rule="evenodd" fill-rule="evenodd"/>
  <path id="svg_7" fill="" d="m7.0776,18.34c-3.1488,0 -4.92133,-1.2512 -4.92133,-2.005l0,3.1988c0,1.3625 2.20379,2.4662 4.92133,2.4662c2.72005,0 4.9226,-1.1037 4.9226,-2.4662l0,-3.2375c0,0.7537 -1.775,2.0437 -4.9226,2.0437z" clip-rule="evenodd" fill-rule="evenodd"/>
 </g>
</svg>