<svg width="24" height="24" viewBox="0 0 24 24" fill="none" xmlns="http://www.w3.org/2000/svg">
<path d="M17.5915 11.9324C19.9892 11.9324 21.9329 10.8283 21.9329 9.46619C21.9329 8.10413 19.9892 6.99996 17.5915 6.99996C15.1939 6.99996 13.2502 8.10413 13.2502 9.46619C13.2502 10.8283 15.1939 11.9324 17.5915 11.9324Z" fill="#263238"/>
<path fill-rule="evenodd" clip-rule="evenodd" d="M17.6562 13.3513C14.5511 13.3513 13.3149 12.0501 13.3149 11.2963V14.5251C13.3149 15.8876 15.2586 16.99 17.6562 16.99C20.0562 16.99 22 15.8876 22 14.5251L22 11.3738C22 12.1288 20.7625 13.3513 17.6562 13.3513Z" fill="#263238"/>
<path fill-rule="evenodd" clip-rule="evenodd" d="M17.6562 18.34C14.8786 18.34 13.3149 17.0888 13.3149 16.335L13.3149 19.5338C13.3149 20.8963 15.2586 22 17.6562 22C20.0562 22 22 20.8963 22 19.5338V16.2963C22 17.05 20.435 18.34 17.6562 18.34Z" fill="#263238"/>
<path d="M6.92133 6.93246C9.63931 6.93246 11.8427 5.82829 11.8427 4.46623C11.8427 3.10417 9.63931 2 6.92133 2C4.20335 2 2 3.10417 2 4.46623C2 5.82829 4.20335 6.93246 6.92133 6.93246Z" fill="#263238"/>
<path fill-rule="evenodd" clip-rule="evenodd" d="M7.0776 8.35136C3.5588 8.35136 2.15627 7.05012 2.15627 6.29638L2.15627 9.5251C2.15627 10.8876 4.36006 11.9901 7.0776 11.9901C9.79765 11.9901 12.0002 10.8876 12.0002 9.5251L12.0002 6.37388C12.0002 7.12887 10.5964 8.35136 7.0776 8.35136Z" fill="#263238"/>
<path fill-rule="evenodd" clip-rule="evenodd" d="M7.0776 13.3401C3.9288 13.3401 2.15627 12.0888 2.15627 11.3351L2.15627 14.5338C2.15627 15.8963 4.36006 17 7.0776 17C9.79765 17 12.0002 15.8963 12.0002 14.5338V11.2963C12.0002 12.0501 10.2252 13.3401 7.0776 13.3401Z" fill="#263238"/>
<path fill-rule="evenodd" clip-rule="evenodd" d="M7.0776 18.34C3.9288 18.34 2.15627 17.0888 2.15627 16.335L2.15627 19.5338C2.15627 20.8963 4.36006 22 7.0776 22C9.79765 22 12.0002 20.8963 12.0002 19.5338L12.0002 16.2963C12.0002 17.05 10.2252 18.34 7.0776 18.34Z" fill="#263238"/>
</svg>
