<svg width="20" height="20" viewBox="0 0 20 20" fill="none" xmlns="http://www.w3.org/2000/svg">
<path d="M12.753 10.0008C12.3129 10.0008 11.8989 9.76644 11.6749 9.39145L10.0006 6.61549L8.3288 9.39145C8.10225 9.76905 7.68821 10.0034 7.24814 10.0034C7.13096 10.0034 7.01378 9.98779 6.9018 9.95394L3.33432 8.93313V13.5684C3.33432 13.9512 3.59472 14.2846 3.96449 14.3757L9.59434 15.7845C9.85995 15.8496 10.1386 15.8496 10.4016 15.7845L16.0366 14.3757C16.4064 14.2819 16.6668 13.9486 16.6668 13.5684V8.93313L13.0993 9.95133C12.9874 9.98519 12.8702 10.0008 12.753 10.0008ZM18.2891 7.07902L16.948 4.402C16.8673 4.24055 16.6929 4.1468 16.5132 4.17024L10.0006 5.00095L12.3884 8.96178C12.4874 9.12584 12.6853 9.20396 12.8702 9.15188L18.0235 7.68056C18.2813 7.60504 18.4063 7.31859 18.2891 7.07902ZM3.05309 4.402L1.71203 7.07902C1.59224 7.31859 1.71984 7.60504 1.97503 7.67796L7.12835 9.14927C7.31324 9.20135 7.51114 9.12323 7.61009 8.95917L10.0006 5.00095L3.48535 4.17024C3.30568 4.14941 3.13381 4.24055 3.05309 4.402Z" fill=""/>
</svg>
