<svg width="24" height="24" viewBox="0 0 24 24" fill="none" xmlns="http://www.w3.org/2000/svg">
<path d="M15.3036 12.001C14.7755 12.001 14.2787 11.7197 14.0099 11.2697L12.0007 7.93858L9.99457 11.2697C9.72271 11.7229 9.22587 12.0041 8.69778 12.0041C8.55716 12.0041 8.41654 11.9853 8.28218 11.9447L4.0012 10.7198V16.2821C4.0012 16.7415 4.31368 17.1415 4.7574 17.2508L11.5132 18.9414C11.832 19.0195 12.1663 19.0195 12.4819 18.9414L19.244 17.2508C19.6877 17.1383 20.0002 16.7383 20.0002 16.2821V10.7198L15.7192 11.9416C15.5848 11.9822 15.4442 12.001 15.3036 12.001ZM21.9469 8.49481L20.3377 5.2824C20.2408 5.08865 20.0314 4.97616 19.8158 5.00428L12.0007 6.00113L14.8661 10.7541C14.9849 10.951 15.2224 11.0447 15.4442 10.9822L21.6282 9.21667C21.9376 9.12604 22.0876 8.7823 21.9469 8.49481ZM3.66372 5.2824L2.05444 8.49481C1.9107 8.7823 2.06382 9.12604 2.37005 9.21354L8.55403 10.9791C8.7759 11.0416 9.01338 10.9479 9.13212 10.751L12.0007 6.00113L4.18244 5.00428C3.96682 4.97928 3.76059 5.08865 3.66372 5.2824Z" fill="#263238"/>
</svg>
